<svg xmlns="http://www.w3.org/2000/svg" width="13.199" height="11.199" viewBox="0 0 13.199 11.199">
  <g id="Group_8" data-name="Group 8" transform="translate(0.1 0.1)">
    <path id="Shape" d="M12.577,11a.4.4,0,0,1-.218-.068L9.54,9.064,6.719,10.931A.407.407,0,0,1,6.5,11a.4.4,0,0,1-.219-.066L3.462,9.064.644,10.931a.4.4,0,0,1-.429.005A.478.478,0,0,1,0,10.527V2.48a.478.478,0,0,1,.206-.4L3.245.067a.394.394,0,0,1,.438,0L6.5,1.934,9.319.067A.41.41,0,0,1,9.54,0a.4.4,0,0,1,.218.067L12.8,2.08a.468.468,0,0,1,.2.4V10.53a.479.479,0,0,1-.214.41A.387.387,0,0,1,12.577,11ZM2.99,1.361.929,2.776V9.7L2.99,8.283ZM6.966,6.424V9.671l2.119-1.4V5.141a.6.6,0,0,0-.047.051L9.03,5.2c-.053.061-.1.121-.157.177l-.348-.3.087-.1.006-.007L8.678,4.9l.1-.116.012-.014c.043-.049.087-.1.133-.148l.154.138V1.346L6.963,2.75V5.966c.07,0,.133-.012.191-.021l.073.453c-.07.01-.151.019-.247.026ZM3.919,4.765h0V8.271l2.119,1.4V5.94l-.122.366a2.6,2.6,0,0,1-.6-.281l.247-.389a2.245,2.245,0,0,0,.476.226V2.75l-2.119-1.4v2.89a3.21,3.21,0,0,1,.354.214L4,4.823l-.046-.032-.038-.026ZM10.243,3.8h0l.092.449a1.66,1.66,0,0,0-.322.1V8.285l2.057,1.384V2.747l-2.06-1.389V3.864l.034-.01a2.016,2.016,0,0,1,.2-.05Z"  stroke-miterlimit="10" stroke-width="0.2"/>
    <path id="Shape-2" data-name="Shape" d="M.686.966A2.1,2.1,0,0,1,1,.344L.416,0A2.618,2.618,0,0,0,.009.782L0,.813.673,1Z" transform="translate(2 5)" />
    <path id="Shape-3" data-name="Shape" d="M.961.705C1.047.656.907.66,1,.631L.81,0A2.162,2.162,0,0,0,.438.17,2.2,2.2,0,0,0,0,.515L.422,1A3.006,3.006,0,0,1,.961.705Z" transform="translate(2 4)" "/>
    <path id="Shape-4" data-name="Shape" d="M0,.424.268,1A3.175,3.175,0,0,0,1,.48L.594,0A2.522,2.522,0,0,1,0,.424Z" transform="translate(8 5)" />
    <path id="Shape-5" data-name="Shape" d="M.6.135.478,0,0,.39C.039.434.078.476.114.521A5.811,5.811,0,0,0,.569,1L1,.566C.859.434.733.288.6.135Z" transform="translate(5 5)" />
    <path id="Shape-6" data-name="Shape" d="M.525,1,1,.76,1.475,1,2,.737,1.521.5,2,.263,1.475,0,1,.24.525,0,0,.263.479.5,0,.737Z" transform="translate(11 4)" />
  </g>
</svg>
