<?xml version="1.0" encoding="utf-8"?>
<!-- Svg Vector Icons : http://www.onlinewebfonts.com/icon -->
<!DOCTYPE svg PUBLIC "-//W3C//DTD SVG 1.1//EN" "http://www.w3.org/Graphics/SVG/1.1/DTD/svg11.dtd">
<svg version="1.1" xmlns="http://www.w3.org/2000/svg" xmlns:xlink="http://www.w3.org/1999/xlink" x="0px" y="0px" viewBox="0 0 1000 1000" enable-background="new 0 0 1000 1000" xml:space="preserve">
<metadata> Svg Vector Icons : http://www.onlinewebfonts.com/icon </metadata>
<g><path d="M295.7,558.5c122.1-16.9,216.2-121.7,216.2-248.4c0-138.6-112.3-250.9-250.9-250.9C122.4,59.1,10,171.5,10,310.1c0,126.8,94,231.5,216.2,248.4v120.8H63.7v69.4h162.5v162.6h69.4V748.8h162.5v-69.4H295.7V558.5z M260.9,491.5c-100.2,0-181.4-81.2-181.4-181.4c0-100.3,81.2-181.4,181.4-181.4c100.3,0,181.4,81.2,181.4,181.4C442.4,410.3,361.2,491.5,260.9,491.5z M773.7,444l-0.1-254.6l66.4,66.4l49.1-49.1L773.5,91.3l-34.8-34.7L588.7,206.8l49.1,49.1l66.4-66.5l0.1,254.6C582.1,461,488,565.8,488.1,692.6c0.1,138.6,112.4,250.9,251.1,250.9C877.8,943.4,990,831,990,692.4C989.9,565.6,895.8,461,773.7,444z M739.1,874c-100.3,0.1-181.4-81.2-181.5-181.4c0-100.2,81.1-181.4,181.4-181.5c100.2-0.1,181.4,81.1,181.5,181.3C920.6,792.7,839.3,873.9,739.1,874z"/></g>
</svg>