<svg id="Location_Icon" data-name="Location Icon" xmlns="http://www.w3.org/2000/svg" width="14" height="16" viewBox="0 0 14 16">
  <circle id="Oval" cx="2" cy="2" r="2" transform="translate(5 5)" />
  <path id="Shape" d="M7.054,16a1.06,1.06,0,0,1-.754-.314c-.025-.025-.314-.281-.713-.634C4.368,13.973,2.1,11.965,2.1,11.89A6.382,6.382,0,0,1,0,6.994,6.953,6.953,0,0,1,7,0a6.954,6.954,0,0,1,7,6.994,6.71,6.71,0,0,1-2.1,5c-.05.05-1.092.99-2.1,1.9s-2.05,1.848-2.1,1.9A1.085,1.085,0,0,1,7.054,16ZM3.6,10.691l3.4,3,3.4-3A4.95,4.95,0,0,0,7,2.1,5.051,5.051,0,0,0,3.45,3.5,4.824,4.824,0,0,0,2,6.994a5.235,5.235,0,0,0,1.6,3.7h0Z"/>
</svg>
