<svg xmlns="http://www.w3.org/2000/svg" width="24.042" height="12.904" viewBox="0 0 24.042 12.904">
  <defs>
    <style>
      .cls-1 {
        fill: #fff;
      }
    </style>
  </defs>
  <g id="Group_14" data-name="Group 14" transform="translate(-0.806 -0.73)">
    <path id="Shape"  d="M23.31.466H.729A.711.711,0,0,1,.05,0L0,.47a.717.717,0,0,0,.726.8H23.31a.717.717,0,0,0,.726-.8L23.989,0A.711.711,0,0,1,23.31.466Z" transform="translate(0.807 12.36)"/>
    <path id="Shape-2" data-name="Shape"  d="M23.31.466H.729A.711.711,0,0,1,.05,0L0,.47a.717.717,0,0,0,.726.8H23.31a.717.717,0,0,0,.726-.8L23.989,0A.711.711,0,0,1,23.31.466Z" transform="translate(0.807 10.748)"/>
    <path id="Shape-3" data-name="Shape"  d="M23.31.466H.729A.711.711,0,0,1,.05,0L0,.47a.717.717,0,0,0,.726.8H23.31a.717.717,0,0,0,.726-.8L23.989,0A.711.711,0,0,1,23.31.466Z" transform="translate(0.807 9.135)"/>
    <path id="Shape-4" data-name="Shape"  d="M23.312,8.065H.731A.725.725,0,0,1,.186,7.83.729.729,0,0,1,0,7.262L.65.8A.911.911,0,0,1,1.537,0H22.5a.913.913,0,0,1,.887.8l.645,6.459a.716.716,0,0,1-.725.8ZM1.537.4a.512.512,0,0,0-.485.439L.406,7.3a.332.332,0,0,0,.078.256.327.327,0,0,0,.247.1H23.312a.33.33,0,0,0,.247-.1.326.326,0,0,0,.078-.256L22.991.842A.514.514,0,0,0,22.505.4Z" transform="translate(0.806 0.73)"/>
    <path id="Shape-5" data-name="Shape"  d="M0,0V.935C.452.89.676.744.676.494.676.291.452.127,0,0Z" transform="translate(13.162 5.258)"/>
    <path id="Shape-6" data-name="Shape"  d="M22.442,6.451H0L.638.076A.12.12,0,0,1,.722,0H21.689a.122.122,0,0,1,.085.077l.668,6.374ZM9.066,4.258v.855a5.552,5.552,0,0,0,1.786.284v.652h.689V5.38A3.179,3.179,0,0,0,12.973,5a.952.952,0,0,0,.5-.827.913.913,0,0,0-.45-.757,4.545,4.545,0,0,0-1.484-.557V1.688a5.006,5.006,0,0,1,1.49.32V1.174a5.134,5.134,0,0,0-1.49-.21V.4h-.689V.976a2.873,2.873,0,0,0-1.39.4.983.983,0,0,0-.524.825.941.941,0,0,0,.4.763,4.321,4.321,0,0,0,1.509.582V4.668a5.5,5.5,0,0,1-.968-.141A3.465,3.465,0,0,1,9.066,4.258Z" transform="translate(1.622 1.536)"/>
    <path id="Shape-7" data-name="Shape"  d="M0,.447Q0,.765.656.978V0Q0,.076,0,.447Z" transform="translate(11.816 3.236)"/>
  </g>
</svg>
