<svg xmlns="http://www.w3.org/2000/svg" width="16.125" height="17.199" viewBox="0 0 16.125 17.199">
  <path id="Shape" d="M.9,17.2a.9.9,0,0,1-.9-.9V.9A.9.9,0,0,1,1.792.9v.613A6.306,6.306,0,0,1,5.275.716,7.648,7.648,0,0,1,8.681,1.7a6.186,6.186,0,0,0,2.617.81c2.151,0,3.05-.667,3.336-.953a1.072,1.072,0,0,1,.749-.4.753.753,0,0,1,.742.8v8.736a1.545,1.545,0,0,1-.416,1.029,5.556,5.556,0,0,1-3.964,1.548,8.407,8.407,0,0,1-3.118-.847,9.5,9.5,0,0,0-3.611-.945,5.079,5.079,0,0,0-3.225.96V16.3A.9.9,0,0,1,.9,17.2ZM2.508,2.866a.717.717,0,0,0-.716.716V9.317a.716.716,0,1,0,1.433,0V3.583A.717.717,0,0,0,2.508,2.866Z" />
</svg>
