<svg id="Group_4" data-name="Group 4" xmlns="http://www.w3.org/2000/svg" width="22" height="19" viewBox="0 0 22 19">
  <defs>
    <style>
      .cls-1 {
        fill: #273142;
      }
    </style>
  </defs>
  <path id="Shape"  d="M20.308,11H1.692A1.694,1.694,0,0,1,0,9.308V1.692A1.694,1.694,0,0,1,1.692,0H20.308A1.694,1.694,0,0,1,22,1.692V9.308A1.694,1.694,0,0,1,20.308,11ZM11,7.616a.846.846,0,1,0,.846.846A.847.847,0,0,0,11,7.616Z" transform="translate(0 2)"/>
  <path id="Shape-2" data-name="Shape"  d="M20.308.5H1.692A3.2,3.2,0,0,1,0,0V3.2A1.748,1.748,0,0,0,1.692,5H20.308A1.748,1.748,0,0,0,22,3.2V0A3.2,3.2,0,0,1,20.308.5Z" transform="translate(0 14)"/>
  <path id="Shape-3" data-name="Shape"  d="M5,3H0V2A1.856,1.856,0,0,1,1.667,0H3.333A1.856,1.856,0,0,1,5,2Z" transform="translate(8)"/>
</svg>
