<svg id="envelope" xmlns="http://www.w3.org/2000/svg" width="14" height="14" viewBox="0 0 14 14">
  <path id="Shape" d="M12.769,14H1.23A1.232,1.232,0,0,1,0,12.769V5.387a.413.413,0,0,1,.164-.328l.031-.023.1-.073L.3,4.955l.225-.169.348-.262,1.264-.95.671-.5.013-.01.253-.19.137-.1.1-.072V.41A.411.411,0,0,1,3.719,0h6.563a.41.41,0,0,1,.41.41V2.694l3.146,2.365A.415.415,0,0,1,14,5.387v7.383A1.233,1.233,0,0,1,12.769,14ZM5.122,10.035,1.5,13.18h10.99L8.878,10.035l-1.068.931a1.235,1.235,0,0,1-1.62,0ZM13.18,6.288,9.5,9.491l3.677,3.2Zm-12.36,0v6.4L4.5,9.491Zm9.871-2.568V7.367L12.938,5.41Zm-7.383,0L1.061,5.41,3.308,7.367ZM9.122.82a1.243,1.243,0,0,0,.75.751V.82Zm-4.992,0v.753a1.254,1.254,0,0,0,.75-.753Z" />
  <path id="Path" d="M1.6,0H4.143a2.057,2.057,0,0,0,1.6,1.6V7.262l-2.6,2.266a.412.412,0,0,1-.541,0L0,7.262V1.6H0A2.057,2.057,0,0,0,1.6,0Z" transform="translate(4.129 0.82)" />
  <path id="Shape-2" data-name="Shape" d="M1.229,2.483a.409.409,0,0,1-.14-.794.63.63,0,0,1,.672.285.41.41,0,0,0,.627-.527A1.7,1.7,0,0,0,1.638.912v-.5a.41.41,0,0,0-.819,0V.916L.808.92A1.228,1.228,0,0,0,1.229,3.3a.409.409,0,0,1,.16.787.561.561,0,0,1-.6-.182.409.409,0,1,0-.57.588,1.608,1.608,0,0,0,.6.377v.477a.41.41,0,0,0,.819,0v-.48l.069-.027a1.228,1.228,0,0,0-.479-2.359Z" transform="translate(5.758 2.484)" />
</svg>
