<svg id="Group_15" data-name="Group 15" xmlns="http://www.w3.org/2000/svg" width="15" height="15" viewBox="0 0 15 15">
  <path id="Shape" d="M11,15H8.5a3.941,3.941,0,0,1-4-3.871V8.709A1.444,1.444,0,0,1,6,7.259V3.629A2.217,2.217,0,0,0,3.75,1.452,2.217,2.217,0,0,0,1.5,3.629V5.565A.758.758,0,0,1,.75,6.29.757.757,0,0,1,0,5.565V3.629A3.543,3.543,0,0,1,1.106,1.071a3.8,3.8,0,0,1,5.287,0A3.543,3.543,0,0,1,7.5,3.629v3.63h6A1.444,1.444,0,0,1,15,8.709v2.42A3.942,3.942,0,0,1,11,15Zm-1-5c-.444,0-.833.292-.833.626a.672.672,0,0,0,.555.583v1.083c0,.125.112.209.278.209s.278-.084.278-.209V11.209c.348-.087.555-.305.555-.583C10.833,10.292,10.444,10,10,10Z" />
</svg>
