<svg xmlns="http://www.w3.org/2000/svg" width="11.214" height="11.199" viewBox="0 0 11.214 11.199">
  <path id="Shape" d="M5.867,11H5.134v-.013A5.509,5.509,0,0,1,.013,5.867H0V5.134H.013A5.509,5.509,0,0,1,5.134.013V0h.734V.013a5.513,5.513,0,0,1,5.081,4.733A2.263,2.263,0,0,0,10.571,4H9a3.493,3.493,0,0,1,.22,1h1.757c-.007-.079-.016-.163-.029-.255A1.908,1.908,0,0,1,11,5h-.023l.006.066,0,.067H11v.734h-.013l0,.053c0,.025,0,.049-.007.073V6H9.22A3.47,3.47,0,0,1,9,7h1.572a2.251,2.251,0,0,0,.375-.743,5.514,5.514,0,0,1-5.081,4.729V11ZM8.881,8A7.107,7.107,0,0,1,8,10a5.127,5.127,0,0,0,2-2H8.881ZM6,8v2A3.1,3.1,0,0,0,8,8ZM3,8a3.1,3.1,0,0,0,2,2V8H3ZM1,8H1a5.125,5.125,0,0,0,2,2,7.059,7.059,0,0,1-.88-2H1ZM6,6V7H7.826A4.231,4.231,0,0,0,8,6ZM3,6a4.3,4.3,0,0,0,.174,1H5V6ZM1,6a2.156,2.156,0,0,0,.428,1H3a3.667,3.667,0,0,1-.22-1ZM6,4V5H8a4.331,4.331,0,0,0-.174-1ZM3.173,4h0A4.329,4.329,0,0,0,3,5H5V4H3.173ZM1.428,4A2.164,2.164,0,0,0,1,5H2.78A3.6,3.6,0,0,1,3,4ZM8,1a7.16,7.16,0,0,1,.878,2H10A5.16,5.16,0,0,0,8,1ZM6,1V3H8A3.1,3.1,0,0,0,6,1ZM5,1A3.1,3.1,0,0,0,3,3H5ZM3,1A5.134,5.134,0,0,0,1,3H2.12A7.112,7.112,0,0,1,3,1Z" transform="translate(0.1 0.1)"  stroke="" stroke-miterlimit="10" stroke-width="0.2"/>
</svg>
