<svg xmlns="http://www.w3.org/2000/svg" width="11.3" height="12.035" viewBox="0 0 11.3 12.035">
  <g id="Group_14" data-name="Group 14" transform="translate(0.15 0.15)">
    <path id="Shape" d="M4.9,11.734H1.222A1.2,1.2,0,0,1,0,10.562V5.267A2.065,2.065,0,0,1,.648,3.851L4.634.321a1.327,1.327,0,0,1,1.732,0l3.986,3.53A2.065,2.065,0,0,1,11,5.267v5.295a1.2,1.2,0,0,1-1.224,1.172H6.115v-3.5H4.9v3.5ZM5.5,1.173a.061.061,0,0,0-.037.01L1.477,4.713a.953.953,0,0,0-.255.554v5.295H3.677v-3.5h3.66v3.5H9.776s0-.01,0-5.293a.957.957,0,0,0-.254-.554L5.537,1.184A.058.058,0,0,0,5.5,1.173Z" stroke-miterlimit="10" stroke-width="0.3"/>
  </g>
</svg>
