<svg xmlns="http://www.w3.org/2000/svg" width="16.158" height="13.824" viewBox="0 0 16.158 13.824">
  <g id="Group_106" data-name="Group 106" transform="translate(0.1 0.051)">
    <path id="Shape" d="M15.052,3.941H9.476L8.568,0H.907A.908.908,0,0,0,0,.907v7.87a.908.908,0,0,0,.907.907H6.482l.908,3.941h7.662a.908.908,0,0,0,.907-.907V4.848A.908.908,0,0,0,15.052,3.941Z" transform="translate(0 0.049)" fill="#306cff" stroke="#306cff" stroke-miterlimit="10" stroke-width="0.2"/>
    <path id="Path" d="M0,7.587V0H6.686L8.434,7.587Z" transform="translate(1.048 1.097)" fill="#306cff" stroke="#306cff" stroke-miterlimit="10" stroke-width="0.2"/>
    <path id="Path-2" data-name="Path" d="M.595.653l-.362.355L0,0H2.217a6.528,6.528,0,0,1-.735,1.559Z" transform="translate(10.196 7.113)" fill="#fff" stroke="#306cff" stroke-miterlimit="10" stroke-width="0.2"/>
    <path id="Path-3" data-name="Path" d="M.382,1.659h0L0,0,1,1.02a9.161,9.161,0,0,1-.68.732L.383,1.66Z" transform="translate(10 8)" fill="#fff" stroke="#306cff" stroke-miterlimit="10" stroke-width="0.2"/>
    <path id="Path-4" data-name="Path" d="M0,0H1.97L.493,2.141Z" transform="translate(7.557 9.732)" fill="#fff" stroke="#306cff" stroke-miterlimit="10" stroke-width="0.2"/>
    <path id="Path-5" data-name="Path" d="M0,7.587,1.132,5.946l.172.28A6.929,6.929,0,0,0,2.955,4.815L4.282,6.168l.549-.538L3.426,4.2A7.147,7.147,0,0,0,4.41,2.074h.9V1.306H3.4V.848H2.633v.458H1.214L.913,0H6.105V7.587Z" transform="translate(8.805 5.038)" fill="#fff" stroke="#306cff" stroke-miterlimit="10" stroke-width="0.2"/>
    <path id="Path-6" data-name="Path" d="M2.59,2.066h2.59V2.59A2.59,2.59,0,1,1,2.59,0,2.565,2.565,0,0,1,4.17.537l-.64.83a1.526,1.526,0,0,0-.94-.319A1.542,1.542,0,1,0,4.041,3.114H2.59Z" transform="translate(2.149 2.3)" fill="#fff"/>
  </g>
</svg>
