<svg id="if_city_6_3078503" xmlns="http://www.w3.org/2000/svg" width="19" height="18" viewBox="0 0 19 18">
  <path id="Shape" d="M17.628,18H0V16.287H1.44V.553A.546.546,0,0,1,1.979,0h7.6a.543.543,0,0,1,.385.161.561.561,0,0,1,.158.392V16.272h4.323V12.82a3.4,3.4,0,0,1-3.026-3.144,2.961,2.961,0,0,1,1.09-2.248,2.636,2.636,0,0,1-.044-.487,2.812,2.812,0,0,1,1.346-2.5,2.707,2.707,0,0,1,2.8,0,2.812,2.812,0,0,1,1.346,2.5,2.9,2.9,0,0,1-.044.487A2.97,2.97,0,0,1,19,9.676a3.4,3.4,0,0,1-3.025,3.144v3.452h1.653V18ZM6.89,11.861a.327.327,0,0,0-.323.329V13.5a.327.327,0,0,0,.323.33H8.167a.322.322,0,0,0,.233-.1.334.334,0,0,0,.091-.241v-1.3a.327.327,0,0,0-.324-.329Zm-3.5,0a.327.327,0,0,0-.323.329V13.5a.327.327,0,0,0,.323.33H4.67a.325.325,0,0,0,.233-.1.334.334,0,0,0,.09-.241v-1.3a.333.333,0,0,0-.095-.233.32.32,0,0,0-.229-.1Zm3.5-3.228a.322.322,0,0,0-.23.1.332.332,0,0,0-.094.235v1.3a.33.33,0,0,0,.094.235.322.322,0,0,0,.23.1H8.167a.322.322,0,0,0,.23-.1.338.338,0,0,0,.094-.235v-1.3A.335.335,0,0,0,8.4,8.73a.322.322,0,0,0-.23-.1Zm-3.5,0a.322.322,0,0,0-.229.1.332.332,0,0,0-.094.235v1.3a.33.33,0,0,0,.094.235.322.322,0,0,0,.229.1H4.67a.322.322,0,0,0,.229-.1.33.33,0,0,0,.094-.235v-1.3A.331.331,0,0,0,4.9,8.73a.322.322,0,0,0-.229-.1Zm3.5-3.226a.327.327,0,0,0-.323.329v1.3a.327.327,0,0,0,.323.329H8.167a.327.327,0,0,0,.324-.329v-1.3A.333.333,0,0,0,8.4,5.5a.32.32,0,0,0-.23-.1Zm-3.5,0a.319.319,0,0,0-.229.1.333.333,0,0,0-.094.233v1.3a.327.327,0,0,0,.323.329H4.67a.32.32,0,0,0,.229-.1.333.333,0,0,0,.095-.233v-1.3A.333.333,0,0,0,4.9,5.5a.32.32,0,0,0-.229-.1Zm3.5-3.228a.327.327,0,0,0-.323.329V3.821a.327.327,0,0,0,.323.33H8.167a.322.322,0,0,0,.233-.1.334.334,0,0,0,.091-.241v-1.3a.327.327,0,0,0-.324-.329Zm-3.5,0a.327.327,0,0,0-.323.329V3.821a.327.327,0,0,0,.323.33H4.67a.325.325,0,0,0,.233-.1.334.334,0,0,0,.09-.241v-1.3A.333.333,0,0,0,4.9,2.275a.32.32,0,0,0-.229-.1Z" />
</svg>
