<svg id="Group_10" data-name="Group 10" xmlns="http://www.w3.org/2000/svg" width="14" height="14" viewBox="0 0 14 14">
  <path id="Shape" d="M5.332,7.848H0V0H5.332V7.847ZM3.076,2.871v.821H3.9V2.871Zm-1.641,0v.821h.821V2.871ZM3.076,1.23v.821H3.9V1.23Zm-1.641,0v.821h.821V1.23Z" transform="translate(8.668 6.152)" />
  <rect id="Rectangle-path" width="3.691" height="1.23" transform="translate(9.488 4.102)" />
  <rect id="Rectangle-path-2" data-name="Rectangle-path" width="2.051" height="3.281" transform="translate(10.309)" />
  <rect id="Rectangle-path-3" data-name="Rectangle-path" width="1.695" height="6.617" transform="translate(6.152 7.383)" />
  <path id="Shape-2" data-name="Shape" d="M5.332,7.848H0V0H5.332V7.847ZM3.076,2.871v.821H3.9V2.871Zm-1.641,0v.821h.821V2.871ZM3.076,1.23v.821H3.9V1.23Zm-1.641,0v.821h.821V1.23Z" transform="translate(0 6.152)" />
  <rect id="Rectangle-path-4" data-name="Rectangle-path" width="3.691" height="1.23" transform="translate(0.82 4.102)" />
  <rect id="Rectangle-path-5" data-name="Rectangle-path" width="2.051" height="3.281" transform="translate(1.641)" />
</svg>
