<svg xmlns="http://www.w3.org/2000/svg" width="16.656" height="15.301" viewBox="0 0 16.656 15.301">
  <g id="Group_104" data-name="Group 104" transform="translate(0.509)">
    <path id="Fill_1" data-name="Fill 1" d="M7.168,7.8H.479a.479.479,0,0,1-.43-.689L3.393.269a.479.479,0,1,1,.861.421L1.246,6.842H7.168a.479.479,0,1,1,0,.958" transform="translate(8 7)" fill="#306cff" stroke="#306cff" stroke-miterlimit="10" stroke-width="1"/>
    <path id="Fill_1_Copy" data-name="Fill 1 Copy" d="M7.168-7.8H.479a.479.479,0,0,0-.406.225.479.479,0,0,0-.024.464L3.393-.269a.479.479,0,0,0,.641.22.479.479,0,0,0,.22-.641L1.246-6.842H7.168a.479.479,0,0,0,.479-.479A.479.479,0,0,0,7.168-7.8" transform="translate(0 14.8)"  stroke="#306cff" stroke-miterlimit="10" stroke-width="1"/>
    <path id="Fill_4" data-name="Fill 4" d="M0,2.01A2.01,2.01,0,1,0,2.01,0,2.012,2.012,0,0,0,0,2.01Z" transform="translate(11 0)" />
    <path id="Fill_9" data-name="Fill 9" d="M2.009,0A2.009,2.009,0,1,0,4.018,2.009,2.011,2.011,0,0,0,2.009,0" transform="translate(2 0)" />
</svg>
