<svg xmlns="http://www.w3.org/2000/svg" xmlns:xlink="http://www.w3.org/1999/xlink" width="16.019" height="16.354" viewBox="0 0 16.019 16.354">
  <defs>
    <clipPath id="clip-path">
      <path id="Clip_2" data-name="Clip 2" d="M0,0H16.018V16.354H0Z" transform="translate(0 0.027)" fill="none"/>
    </clipPath>
  </defs>
  <g id="Group_13" data-name="Group 13" transform="translate(0 -0.055)">
    <g id="Group_3" data-name="Group 3" transform="translate(0 0.027)">
      <path id="Clip_2-2" data-name="Clip 2" d="M0,0H16.018V16.354H0Z" transform="translate(0 0.027)" fill="none"/>
      <g id="Group_3-2" data-name="Group 3" clip-path="url(#clip-path)">
        <path id="Fill_1" data-name="Fill 1" d="M14.018,16.354H2a2,2,0,0,1-2-2V2A2,2,0,0,1,2,0H14.018a2,2,0,0,1,2,2V14.354A2,2,0,0,1,14.018,16.354ZM2,1.489a.545.545,0,0,0-.544.544v9.088A.545.545,0,0,0,2,11.665H14.015a.545.545,0,0,0,.545-.544V2.033a.546.546,0,0,0-.545-.544Z" transform="translate(0 0.027)" />
      </g>
    </g>
    <path id="Fill_4" data-name="Fill 4" d="M1.4,2.806A1.4,1.4,0,1,0,0,1.4a1.4,1.4,0,0,0,1.4,1.4" transform="translate(9.917 2.468)" />
    <path id="Fill_6" data-name="Fill 6" d="M6.575,3.459,4.323,0,0,6.918H11.3L8.319,2.346Z" transform="translate(2.36 3.87)" />
  </g>
</svg>
